<svg xmlns="http://www.w3.org/2000/svg" viewBox="0 0 720 420" role="img" aria-labelledby="title desc">
  <title id="title">Google Search Ads graphic</title>
  <desc id="desc">Search ad, call lead, map pin, and reporting cards for local advertising.</desc>
  <defs>
    <filter id="shadow" x="-20%" y="-20%" width="140%" height="140%">
      <feDropShadow dx="0" dy="16" stdDeviation="14" flood-color="#0f172a" flood-opacity=".14"/>
    </filter>
  </defs>
  <rect width="720" height="420" rx="8" fill="#eff6ff"/>
  <g transform="translate(82 70)" filter="url(#shadow)">
    <rect width="360" height="250" rx="18" fill="#10243e"/>
    <rect x="24" y="28" width="312" height="182" rx="10" fill="#fff"/>
    <rect x="44" y="50" width="230" height="30" rx="15" fill="#f8fafc" stroke="#cbd5e1"/>
    <circle cx="292" cy="65" r="11" fill="#2563eb"/>
    <rect x="44" y="104" width="54" height="20" rx="4" fill="#dbeafe"/>
    <rect x="44" y="136" width="190" height="10" rx="5" fill="#cbd5e1"/>
    <rect x="44" y="160" width="140" height="10" rx="5" fill="#cbd5e1"/>
    <rect x="250" y="128" width="58" height="44" rx="8" fill="#f97316"/>
  </g>
  <g transform="translate(438 92)" filter="url(#shadow)">
    <rect width="156" height="260" rx="22" fill="#10243e"/>
    <rect x="14" y="24" width="128" height="202" rx="12" fill="#fff"/>
    <path d="M78 58c-32 0-48 19-48 42 0 46 48 86 48 86s48-40 48-86c0-23-16-42-48-42Z" fill="#dbeafe"/>
    <circle cx="78" cy="100" r="22" fill="#2563eb"/>
    <rect x="38" y="184" width="80" height="32" rx="8" fill="#f97316"/>
  </g>
  <g transform="translate(208 302)">
    <rect width="300" height="76" rx="8" fill="#fff" stroke="#e2e8f0"/>
    <path d="M34 52V24M82 52V34M130 52V16M178 52V28" stroke="#2563eb" stroke-width="10" stroke-linecap="round"/>
    <path d="m210 50 48-38 20 22" fill="none" stroke="#16a34a" stroke-width="7" stroke-linecap="round" stroke-linejoin="round"/>
  </g>
</svg>
